<mxfile host="app.diagrams.net" modified="2020-05-11T13:13:21.996Z" agent="5.0 (Windows NT 10.0; Win64; x64) AppleWebKit/537.36 (KHTML, like Gecko) Chrome/77.0.3865.90 Safari/537.36" etag="a-S6KwdaVpcCgE-Zrp1i" version="13.1.0" type="github">
  <diagram id="9Wb--HiOI3lc7Gs5Keui" name="Page-1">
    <mxGraphModel dx="1662" dy="796" grid="1" gridSize="10" guides="1" tooltips="1" connect="1" arrows="1" fold="1" page="1" pageScale="1" pageWidth="1654" pageHeight="2336" math="0" shadow="0">
      <root>
        <mxCell id="0" />
        <mxCell id="1" parent="0" />
        <mxCell id="5uftNEFB-jNxvhdUoHgg-1" value="&lt;font style=&quot;font-size: 24px&quot;&gt;启动&lt;/font&gt;" style="rounded=0;whiteSpace=wrap;html=1;" parent="1" vertex="1">
          <mxGeometry x="100" y="80" width="120" height="60" as="geometry" />
        </mxCell>
        <mxCell id="5uftNEFB-jNxvhdUoHgg-10" style="edgeStyle=orthogonalEdgeStyle;rounded=0;orthogonalLoop=1;jettySize=auto;html=1;" parent="1" source="5uftNEFB-jNxvhdUoHgg-2" target="5uftNEFB-jNxvhdUoHgg-7" edge="1">
          <mxGeometry relative="1" as="geometry" />
        </mxCell>
        <mxCell id="5uftNEFB-jNxvhdUoHgg-2" value="&lt;font style=&quot;font-size: 24px&quot;&gt;启动&lt;/font&gt;" style="rounded=0;whiteSpace=wrap;html=1;" parent="1" vertex="1">
          <mxGeometry x="772" y="110" width="120" height="60" as="geometry" />
        </mxCell>
        <mxCell id="5uftNEFB-jNxvhdUoHgg-3" value="&lt;font style=&quot;font-size: 24px&quot;&gt;STM32&lt;/font&gt;" style="text;html=1;strokeColor=none;fillColor=none;align=center;verticalAlign=middle;whiteSpace=wrap;rounded=0;" parent="1" vertex="1">
          <mxGeometry x="140" y="40" width="40" height="20" as="geometry" />
        </mxCell>
        <mxCell id="5uftNEFB-jNxvhdUoHgg-5" value="&lt;span style=&quot;font-size: 24px&quot;&gt;android&lt;/span&gt;" style="text;html=1;strokeColor=none;fillColor=none;align=center;verticalAlign=middle;whiteSpace=wrap;rounded=0;" parent="1" vertex="1">
          <mxGeometry x="802" y="70" width="60" height="20" as="geometry" />
        </mxCell>
        <mxCell id="5uftNEFB-jNxvhdUoHgg-12" style="edgeStyle=orthogonalEdgeStyle;rounded=0;orthogonalLoop=1;jettySize=auto;html=1;entryX=0.5;entryY=0;entryDx=0;entryDy=0;" parent="1" source="5uftNEFB-jNxvhdUoHgg-6" target="5uftNEFB-jNxvhdUoHgg-11" edge="1">
          <mxGeometry relative="1" as="geometry" />
        </mxCell>
        <mxCell id="5uftNEFB-jNxvhdUoHgg-6" value="&lt;font style=&quot;font-size: 24px&quot;&gt;初始化&lt;/font&gt;" style="rounded=0;whiteSpace=wrap;html=1;" parent="1" vertex="1">
          <mxGeometry x="100" y="200" width="120" height="60" as="geometry" />
        </mxCell>
        <mxCell id="5uftNEFB-jNxvhdUoHgg-14" style="edgeStyle=orthogonalEdgeStyle;rounded=0;orthogonalLoop=1;jettySize=auto;html=1;" parent="1" source="5uftNEFB-jNxvhdUoHgg-7" edge="1">
          <mxGeometry relative="1" as="geometry">
            <mxPoint x="832" y="350" as="targetPoint" />
          </mxGeometry>
        </mxCell>
        <mxCell id="5uftNEFB-jNxvhdUoHgg-7" value="&lt;font style=&quot;font-size: 24px&quot;&gt;初始化&lt;/font&gt;" style="rounded=0;whiteSpace=wrap;html=1;" parent="1" vertex="1">
          <mxGeometry x="772" y="230" width="120" height="60" as="geometry" />
        </mxCell>
        <mxCell id="5uftNEFB-jNxvhdUoHgg-9" value="" style="endArrow=classic;html=1;exitX=0.5;exitY=1;exitDx=0;exitDy=0;" parent="1" source="5uftNEFB-jNxvhdUoHgg-1" target="5uftNEFB-jNxvhdUoHgg-6" edge="1">
          <mxGeometry width="50" height="50" relative="1" as="geometry">
            <mxPoint x="380" y="420" as="sourcePoint" />
            <mxPoint x="440" y="370" as="targetPoint" />
          </mxGeometry>
        </mxCell>
        <mxCell id="5uftNEFB-jNxvhdUoHgg-15" style="edgeStyle=orthogonalEdgeStyle;rounded=0;orthogonalLoop=1;jettySize=auto;html=1;" parent="1" source="5uftNEFB-jNxvhdUoHgg-11" edge="1">
          <mxGeometry relative="1" as="geometry">
            <mxPoint x="160" y="600" as="targetPoint" />
          </mxGeometry>
        </mxCell>
        <mxCell id="5uftNEFB-jNxvhdUoHgg-21" value="&lt;font style=&quot;font-size: 24px&quot;&gt;是&lt;/font&gt;" style="edgeLabel;html=1;align=center;verticalAlign=middle;resizable=0;points=[];" parent="5uftNEFB-jNxvhdUoHgg-15" vertex="1" connectable="0">
          <mxGeometry x="0.0924" relative="1" as="geometry">
            <mxPoint as="offset" />
          </mxGeometry>
        </mxCell>
        <mxCell id="5uftNEFB-jNxvhdUoHgg-18" style="edgeStyle=orthogonalEdgeStyle;rounded=0;orthogonalLoop=1;jettySize=auto;html=1;entryX=1;entryY=0.5;entryDx=0;entryDy=0;" parent="1" source="5uftNEFB-jNxvhdUoHgg-11" target="5uftNEFB-jNxvhdUoHgg-6" edge="1">
          <mxGeometry relative="1" as="geometry">
            <mxPoint x="280" y="240" as="targetPoint" />
            <Array as="points">
              <mxPoint x="290" y="420" />
              <mxPoint x="290" y="230" />
            </Array>
          </mxGeometry>
        </mxCell>
        <mxCell id="5uftNEFB-jNxvhdUoHgg-19" value="&lt;font style=&quot;font-size: 24px&quot;&gt;否&lt;/font&gt;" style="edgeLabel;html=1;align=center;verticalAlign=middle;resizable=0;points=[];" parent="5uftNEFB-jNxvhdUoHgg-18" vertex="1" connectable="0">
          <mxGeometry x="-0.1354" y="-1" relative="1" as="geometry">
            <mxPoint as="offset" />
          </mxGeometry>
        </mxCell>
        <mxCell id="5uftNEFB-jNxvhdUoHgg-11" value="&lt;font style=&quot;font-size: 24px&quot;&gt;判断android是否初始化完成&lt;/font&gt;" style="rhombus;whiteSpace=wrap;html=1;" parent="1" vertex="1">
          <mxGeometry x="85" y="330" width="150" height="180" as="geometry" />
        </mxCell>
        <mxCell id="5uftNEFB-jNxvhdUoHgg-45" style="edgeStyle=orthogonalEdgeStyle;rounded=0;orthogonalLoop=1;jettySize=auto;html=1;entryX=0.5;entryY=0;entryDx=0;entryDy=0;" parent="1" source="5uftNEFB-jNxvhdUoHgg-13" edge="1">
          <mxGeometry relative="1" as="geometry">
            <mxPoint x="829.5" y="530" as="targetPoint" />
          </mxGeometry>
        </mxCell>
        <mxCell id="5uftNEFB-jNxvhdUoHgg-13" value="&lt;font style=&quot;font-size: 24px&quot;&gt;发送初始完成给STM32&lt;/font&gt;" style="rounded=0;whiteSpace=wrap;html=1;" parent="1" vertex="1">
          <mxGeometry x="767" y="350" width="125" height="80" as="geometry" />
        </mxCell>
        <mxCell id="5uftNEFB-jNxvhdUoHgg-24" style="edgeStyle=orthogonalEdgeStyle;rounded=0;orthogonalLoop=1;jettySize=auto;html=1;" parent="1" source="5uftNEFB-jNxvhdUoHgg-23" edge="1">
          <mxGeometry relative="1" as="geometry">
            <mxPoint x="160" y="880" as="targetPoint" />
          </mxGeometry>
        </mxCell>
        <mxCell id="5uftNEFB-jNxvhdUoHgg-25" value="&lt;font style=&quot;font-size: 24px&quot;&gt;是&lt;/font&gt;" style="edgeLabel;html=1;align=center;verticalAlign=middle;resizable=0;points=[];" parent="5uftNEFB-jNxvhdUoHgg-24" vertex="1" connectable="0">
          <mxGeometry x="0.1174" y="1" relative="1" as="geometry">
            <mxPoint x="-1" y="-15.859999999999992" as="offset" />
          </mxGeometry>
        </mxCell>
        <mxCell id="5uftNEFB-jNxvhdUoHgg-41" style="edgeStyle=orthogonalEdgeStyle;rounded=0;orthogonalLoop=1;jettySize=auto;html=1;entryX=1;entryY=0.5;entryDx=0;entryDy=0;" parent="1" source="5uftNEFB-jNxvhdUoHgg-23" target="5uftNEFB-jNxvhdUoHgg-38" edge="1">
          <mxGeometry relative="1" as="geometry">
            <mxPoint x="310" y="1570" as="targetPoint" />
            <Array as="points">
              <mxPoint x="350" y="715" />
              <mxPoint x="350" y="1550" />
            </Array>
          </mxGeometry>
        </mxCell>
        <mxCell id="5uftNEFB-jNxvhdUoHgg-42" value="&lt;font style=&quot;font-size: 24px&quot;&gt;否&lt;/font&gt;" style="edgeLabel;html=1;align=center;verticalAlign=middle;resizable=0;points=[];" parent="5uftNEFB-jNxvhdUoHgg-41" vertex="1" connectable="0">
          <mxGeometry x="-0.1264" y="2" relative="1" as="geometry">
            <mxPoint as="offset" />
          </mxGeometry>
        </mxCell>
        <mxCell id="5uftNEFB-jNxvhdUoHgg-23" value="&lt;font style=&quot;font-size: 24px&quot;&gt;判断检测按键是否按下&lt;/font&gt;" style="rhombus;whiteSpace=wrap;html=1;" parent="1" vertex="1">
          <mxGeometry x="85" y="610" width="150" height="210" as="geometry" />
        </mxCell>
        <mxCell id="5uftNEFB-jNxvhdUoHgg-29" style="edgeStyle=orthogonalEdgeStyle;rounded=0;orthogonalLoop=1;jettySize=auto;html=1;entryX=0.5;entryY=0;entryDx=0;entryDy=0;" parent="1" source="5uftNEFB-jNxvhdUoHgg-27" target="5uftNEFB-jNxvhdUoHgg-28" edge="1">
          <mxGeometry relative="1" as="geometry" />
        </mxCell>
        <mxCell id="5uftNEFB-jNxvhdUoHgg-27" value="&lt;font style=&quot;font-size: 24px&quot;&gt;发送检测指令&lt;/font&gt;" style="rounded=0;whiteSpace=wrap;html=1;" parent="1" vertex="1">
          <mxGeometry x="100" y="880" width="120" height="60" as="geometry" />
        </mxCell>
        <mxCell id="5uftNEFB-jNxvhdUoHgg-32" style="edgeStyle=orthogonalEdgeStyle;rounded=0;orthogonalLoop=1;jettySize=auto;html=1;" parent="1" source="5uftNEFB-jNxvhdUoHgg-28" target="5uftNEFB-jNxvhdUoHgg-31" edge="1">
          <mxGeometry relative="1" as="geometry" />
        </mxCell>
        <mxCell id="5uftNEFB-jNxvhdUoHgg-28" value="&lt;font style=&quot;font-size: 24px&quot;&gt;等待结果返回&lt;/font&gt;" style="rounded=0;whiteSpace=wrap;html=1;" parent="1" vertex="1">
          <mxGeometry x="100" y="1010" width="120" height="60" as="geometry" />
        </mxCell>
        <mxCell id="5uftNEFB-jNxvhdUoHgg-34" style="edgeStyle=orthogonalEdgeStyle;rounded=0;orthogonalLoop=1;jettySize=auto;html=1;" parent="1" source="5uftNEFB-jNxvhdUoHgg-31" target="5uftNEFB-jNxvhdUoHgg-33" edge="1">
          <mxGeometry relative="1" as="geometry" />
        </mxCell>
        <mxCell id="5uftNEFB-jNxvhdUoHgg-31" value="&lt;font style=&quot;font-size: 24px&quot;&gt;开始称重&lt;/font&gt;" style="rounded=0;whiteSpace=wrap;html=1;" parent="1" vertex="1">
          <mxGeometry x="100" y="1130" width="120" height="60" as="geometry" />
        </mxCell>
        <mxCell id="5uftNEFB-jNxvhdUoHgg-36" style="edgeStyle=orthogonalEdgeStyle;rounded=0;orthogonalLoop=1;jettySize=auto;html=1;entryX=0.5;entryY=0;entryDx=0;entryDy=0;" parent="1" source="5uftNEFB-jNxvhdUoHgg-33" target="5uftNEFB-jNxvhdUoHgg-35" edge="1">
          <mxGeometry relative="1" as="geometry" />
        </mxCell>
        <mxCell id="5uftNEFB-jNxvhdUoHgg-33" value="&lt;font style=&quot;font-size: 24px&quot;&gt;语言播报结果&lt;/font&gt;" style="rounded=0;whiteSpace=wrap;html=1;" parent="1" vertex="1">
          <mxGeometry x="100" y="1250" width="120" height="60" as="geometry" />
        </mxCell>
        <mxCell id="5uftNEFB-jNxvhdUoHgg-39" style="edgeStyle=orthogonalEdgeStyle;rounded=0;orthogonalLoop=1;jettySize=auto;html=1;entryX=0.5;entryY=0;entryDx=0;entryDy=0;" parent="1" source="5uftNEFB-jNxvhdUoHgg-35" target="5uftNEFB-jNxvhdUoHgg-38" edge="1">
          <mxGeometry relative="1" as="geometry" />
        </mxCell>
        <mxCell id="5uftNEFB-jNxvhdUoHgg-35" value="&lt;font style=&quot;font-size: 24px&quot;&gt;记录重量&lt;/font&gt;" style="rounded=0;whiteSpace=wrap;html=1;" parent="1" vertex="1">
          <mxGeometry x="100" y="1370" width="120" height="60" as="geometry" />
        </mxCell>
        <mxCell id="5uftNEFB-jNxvhdUoHgg-43" style="edgeStyle=orthogonalEdgeStyle;rounded=0;orthogonalLoop=1;jettySize=auto;html=1;entryX=0;entryY=0.5;entryDx=0;entryDy=0;" parent="1" source="5uftNEFB-jNxvhdUoHgg-37" target="5uftNEFB-jNxvhdUoHgg-23" edge="1">
          <mxGeometry relative="1" as="geometry">
            <mxPoint x="20" y="710" as="targetPoint" />
            <Array as="points">
              <mxPoint x="160" y="1810" />
              <mxPoint x="30" y="1810" />
              <mxPoint x="30" y="715" />
            </Array>
          </mxGeometry>
        </mxCell>
        <mxCell id="5uftNEFB-jNxvhdUoHgg-37" value="&lt;font style=&quot;font-size: 24px&quot;&gt;屏幕显示&lt;/font&gt;" style="rounded=0;whiteSpace=wrap;html=1;" parent="1" vertex="1">
          <mxGeometry x="100" y="1680" width="120" height="60" as="geometry" />
        </mxCell>
        <mxCell id="5uftNEFB-jNxvhdUoHgg-40" style="edgeStyle=orthogonalEdgeStyle;rounded=0;orthogonalLoop=1;jettySize=auto;html=1;" parent="1" source="5uftNEFB-jNxvhdUoHgg-38" target="5uftNEFB-jNxvhdUoHgg-37" edge="1">
          <mxGeometry relative="1" as="geometry" />
        </mxCell>
        <mxCell id="5uftNEFB-jNxvhdUoHgg-38" value="&lt;font style=&quot;font-size: 24px&quot;&gt;温度和容量测量&lt;/font&gt;" style="rounded=0;whiteSpace=wrap;html=1;" parent="1" vertex="1">
          <mxGeometry x="95" y="1500" width="130" height="100" as="geometry" />
        </mxCell>
        <mxCell id="5uftNEFB-jNxvhdUoHgg-48" style="edgeStyle=orthogonalEdgeStyle;rounded=0;orthogonalLoop=1;jettySize=auto;html=1;entryX=0.5;entryY=0;entryDx=0;entryDy=0;" parent="1" source="5uftNEFB-jNxvhdUoHgg-46" target="5uftNEFB-jNxvhdUoHgg-47" edge="1">
          <mxGeometry relative="1" as="geometry" />
        </mxCell>
        <mxCell id="5uftNEFB-jNxvhdUoHgg-53" value="是" style="edgeLabel;html=1;align=center;verticalAlign=middle;resizable=0;points=[];" parent="5uftNEFB-jNxvhdUoHgg-48" vertex="1" connectable="0">
          <mxGeometry x="-0.1708" relative="1" as="geometry">
            <mxPoint as="offset" />
          </mxGeometry>
        </mxCell>
        <mxCell id="5uftNEFB-jNxvhdUoHgg-46" value="&lt;font style=&quot;font-size: 24px&quot;&gt;判断是否开始检测&lt;/font&gt;" style="rhombus;whiteSpace=wrap;html=1;" parent="1" vertex="1">
          <mxGeometry x="754.25" y="530" width="150.5" height="190" as="geometry" />
        </mxCell>
        <mxCell id="5uftNEFB-jNxvhdUoHgg-54" style="edgeStyle=orthogonalEdgeStyle;rounded=0;orthogonalLoop=1;jettySize=auto;html=1;entryX=0.5;entryY=0;entryDx=0;entryDy=0;" parent="1" source="5uftNEFB-jNxvhdUoHgg-47" target="5uftNEFB-jNxvhdUoHgg-49" edge="1">
          <mxGeometry relative="1" as="geometry" />
        </mxCell>
        <mxCell id="5uftNEFB-jNxvhdUoHgg-47" value="&lt;font style=&quot;font-size: 24px&quot;&gt;摄像头拍照&lt;/font&gt;" style="rounded=0;whiteSpace=wrap;html=1;" parent="1" vertex="1">
          <mxGeometry x="765.5" y="790" width="128" height="60" as="geometry" />
        </mxCell>
        <mxCell id="5uftNEFB-jNxvhdUoHgg-55" style="edgeStyle=orthogonalEdgeStyle;rounded=0;orthogonalLoop=1;jettySize=auto;html=1;entryX=0.5;entryY=0;entryDx=0;entryDy=0;" parent="1" source="5uftNEFB-jNxvhdUoHgg-49" target="5uftNEFB-jNxvhdUoHgg-50" edge="1">
          <mxGeometry relative="1" as="geometry" />
        </mxCell>
        <mxCell id="5uftNEFB-jNxvhdUoHgg-49" value="&lt;font style=&quot;font-size: 24px&quot;&gt;将照片上传京东服务器&lt;/font&gt;" style="rounded=0;whiteSpace=wrap;html=1;" parent="1" vertex="1">
          <mxGeometry x="762.25" y="920" width="134.5" height="90" as="geometry" />
        </mxCell>
        <mxCell id="5uftNEFB-jNxvhdUoHgg-56" style="edgeStyle=orthogonalEdgeStyle;rounded=0;orthogonalLoop=1;jettySize=auto;html=1;entryX=0.5;entryY=0;entryDx=0;entryDy=0;" parent="1" source="5uftNEFB-jNxvhdUoHgg-50" target="5uftNEFB-jNxvhdUoHgg-51" edge="1">
          <mxGeometry relative="1" as="geometry" />
        </mxCell>
        <mxCell id="5uftNEFB-jNxvhdUoHgg-50" value="&lt;font style=&quot;font-size: 24px&quot;&gt;等待垃圾分类结果返回&lt;/font&gt;" style="rounded=0;whiteSpace=wrap;html=1;" parent="1" vertex="1">
          <mxGeometry x="762.25" y="1070" width="134.5" height="80" as="geometry" />
        </mxCell>
        <mxCell id="5uftNEFB-jNxvhdUoHgg-57" style="edgeStyle=orthogonalEdgeStyle;rounded=0;orthogonalLoop=1;jettySize=auto;html=1;entryX=0.46;entryY=-0.011;entryDx=0;entryDy=0;entryPerimeter=0;" parent="1" source="5uftNEFB-jNxvhdUoHgg-51" target="5uftNEFB-jNxvhdUoHgg-52" edge="1">
          <mxGeometry relative="1" as="geometry" />
        </mxCell>
        <mxCell id="5uftNEFB-jNxvhdUoHgg-51" value="&lt;font style=&quot;font-size: 24px&quot;&gt;解析返回结果&lt;/font&gt;" style="rounded=0;whiteSpace=wrap;html=1;" parent="1" vertex="1">
          <mxGeometry x="763" y="1210" width="133" height="70" as="geometry" />
        </mxCell>
        <mxCell id="5uftNEFB-jNxvhdUoHgg-58" style="edgeStyle=orthogonalEdgeStyle;rounded=0;orthogonalLoop=1;jettySize=auto;html=1;entryX=0;entryY=0.5;entryDx=0;entryDy=0;" parent="1" source="5uftNEFB-jNxvhdUoHgg-52" target="5uftNEFB-jNxvhdUoHgg-46" edge="1">
          <mxGeometry relative="1" as="geometry">
            <mxPoint x="520" y="960" as="targetPoint" />
            <Array as="points">
              <mxPoint x="630" y="1385" />
              <mxPoint x="630" y="625" />
            </Array>
          </mxGeometry>
        </mxCell>
        <mxCell id="5uftNEFB-jNxvhdUoHgg-52" value="&lt;font style=&quot;font-size: 24px&quot;&gt;通过串口发送结果到STM32&lt;/font&gt;" style="rounded=0;whiteSpace=wrap;html=1;" parent="1" vertex="1">
          <mxGeometry x="763" y="1340" width="144.5" height="90" as="geometry" />
        </mxCell>
      </root>
    </mxGraphModel>
  </diagram>
</mxfile>
